<svg viewBox="0 0 64 64" xmlns="http://www.w3.org/2000/svg" role="img" aria-label="กระดิ่ง"><ellipse cx="32" cy="58" rx="14" ry="3" fill="#000" opacity="0.10"/><path d="M32 8 C33.8 8 35 9.2 35 11 L35 12 C43 14 47 21 47 30 C47 38 49 42 52 45 L12 45 C15 42 17 38 17 30 C17 21 21 14 29 12 L29 11 C29 9.2 30.2 8 32 8 Z" fill="#ffe27a" stroke="#e0a516" stroke-width="3" stroke-linejoin="round"/><path d="M26 49 C27 52 29.5 54 32 54 C34.5 54 37 52 38 49" fill="#ffc531" stroke="#e0a516" stroke-width="2.8" stroke-linecap="round"/><circle cx="24" cy="24" r="2" fill="#fff" opacity=".6"/></svg>
