<svg viewBox="0 0 64 64" xmlns="http://www.w3.org/2000/svg" role="img" aria-label="แครอท"><ellipse cx="32" cy="58" rx="14" ry="3" fill="#000" opacity="0.10"/><path d="M40 12 C36 6 30 8 30 12 M44 16 C50 12 48 6 44 8 M42 14 C46 8 54 10 52 16" fill="#8fdcb4" stroke="#2c9457" stroke-width="2.8" stroke-linecap="round" stroke-linejoin="round"/><path d="M40 18 C48 24 46 30 24 52 C18 56 12 50 16 44 C34 20 34 14 40 18 Z" fill="#ff9f43" stroke="#d47a1c" stroke-width="3" stroke-linejoin="round"/><path d="M34 28 L40 30 M28 36 L34 38 M22 44 L28 46" stroke="#d47a1c" stroke-width="2.2" stroke-linecap="round"/></svg>
