<svg viewBox="0 0 64 64" xmlns="http://www.w3.org/2000/svg" role="img" aria-label="เป็ด"><path d="M4 50 Q12 46 20 50 T36 50 T52 50 T64 50 L64 60 L0 60 L0 50 Q2 49 4 50" fill="#8fd3ff" opacity=".6"/><path d="M18 40 C14 30 20 20 30 20 C36 20 40 24 40 30 L40 34 C48 32 54 36 54 42 C54 48 46 52 34 52 C25 52 20 47 18 40 Z" fill="#ffe27a" stroke="#e0a516" stroke-width="3" stroke-linejoin="round"/><circle cx="30" cy="27" r="2.4" fill="#7a5c10"/><path d="M18 28 C13 27 10 29 9 32 C12 34 17 33 20 31 Z" fill="#ff9f43" stroke="#d47a1c" stroke-width="2.4" stroke-linejoin="round"/></svg>
