<svg viewBox="0 0 64 64" xmlns="http://www.w3.org/2000/svg" role="img" aria-label="เครื่องบิน"><ellipse cx="32" cy="57" rx="18" ry="3.2" fill="#000" opacity="0.10"/><path d="M6 34 C10 30 20 28 30 29 L44 18 C46 16 50 16 51 18 L42 31 C50 33 56 36 57 39 C57 42 50 43 42 41 L36 40 L28 48 C27 49 24 49 24 47 L27 39 C18 38 8 38 6 34 Z" fill="#8fd3ff" stroke="#2f7fb5" stroke-width="3" stroke-linejoin="round"/><circle cx="47" cy="21" r="1.6" fill="#e8f6ff"/><path d="M14 20 L22 24 M10 26 L18 28" stroke="#b9d6ff" stroke-width="2.4" stroke-linecap="round"/></svg>
