<svg viewBox="0 0 64 64" xmlns="http://www.w3.org/2000/svg" role="img" aria-label="จิ๊กซอว์">
  <defs><linearGradient id="tzA" x1="0" y1="0" x2="1" y2="1"><stop offset="0" stop-color="#8fdcb4"/><stop offset="1" stop-color="#3fc072"/></linearGradient></defs>
  <ellipse cx="32" cy="58" rx="18" ry="3.5" fill="#000" opacity="0.10"/>
  <path d="M14 16 L27 16 C25 10 29 7 32 7 C35 7 39 10 37 16 L50 16 L50 28 C56 26 59 30 59 33 C59 36 56 40 50 38 L50 50 L38 50 C40 56 36 59 33 59 C30 59 26 56 28 50 L14 50 L14 38 C8 40 5 36 5 33 C5 30 8 26 14 28 Z" fill="url(#tzA)" stroke="#2c9457" stroke-width="3" stroke-linejoin="round"/>
  <circle cx="25" cy="29" r="2.4" fill="#1d6b3e"/><circle cx="39" cy="29" r="2.4" fill="#1d6b3e"/>
  <path d="M26 37c2.6 2.4 6.8 2.4 9.4 0" fill="none" stroke="#1d6b3e" stroke-width="2.4" stroke-linecap="round"/>
</svg>
