<svg viewBox="0 0 64 64" xmlns="http://www.w3.org/2000/svg" role="img" aria-label="จรวด">
  <defs><linearGradient id="trA" x1="0" y1="0" x2="0" y2="1"><stop offset="0" stop-color="#c9b8f2"/><stop offset="1" stop-color="#8e7cc3"/></linearGradient></defs>
  <ellipse cx="32" cy="58" rx="16" ry="3.2" fill="#000" opacity="0.10"/>
  <path d="M32 4 C41 10 44 22 42 34 L22 34 C20 22 23 10 32 4 Z" fill="url(#trA)" stroke="#5e4d99" stroke-width="3" stroke-linejoin="round"/>
  <circle cx="32" cy="20" r="6" fill="#e8f6ff" stroke="#5e4d99" stroke-width="3"/>
  <path d="M22 30 L13 42 L22 40 Z M42 30 L51 42 L42 40 Z" fill="#ffb9d5" stroke="#c0527a" stroke-width="3" stroke-linejoin="round"/>
  <path d="M26 34 L38 34 L36 42 L28 42 Z" fill="#b7a5e8" stroke="#5e4d99" stroke-width="3" stroke-linejoin="round"/>
  <path d="M29 46 C30 50 30 52 32 55 C34 52 34 50 35 46" fill="#ffc531" stroke="#e0a516" stroke-width="2.6" stroke-linejoin="round"/>
</svg>
