<svg viewBox="0 0 64 64" xmlns="http://www.w3.org/2000/svg" role="img" aria-label="สตรอว์เบอร์รี"><ellipse cx="32" cy="58" rx="14" ry="3" fill="#000" opacity="0.10"/><path d="M32 14 C24 10 18 12 16 16 C22 18 27 17 32 14 C37 17 42 18 48 16 C46 12 40 10 32 14 Z" fill="#8fdcb4" stroke="#2c9457" stroke-width="2.8" stroke-linejoin="round"/><path d="M32 12 L32 6" stroke="#2c9457" stroke-width="2.8" stroke-linecap="round"/><path d="M32 16 C44 16 50 24 48 33 C46 44 38 52 32 55 C26 52 18 44 16 33 C14 24 20 16 32 16 Z" fill="#ff8f8f" stroke="#b5473a" stroke-width="3" stroke-linejoin="round"/><g fill="#ffe27a"><circle cx="26" cy="28" r="1.7"/><circle cx="38" cy="28" r="1.7"/><circle cx="32" cy="36" r="1.7"/><circle cx="25" cy="40" r="1.7"/><circle cx="39" cy="40" r="1.7"/><circle cx="32" cy="46" r="1.7"/></g></svg>
