<svg xmlns="http://www.w3.org/2000/svg" viewBox="0 0 64 64">
  <circle cx="32" cy="32" r="31" fill="#4FA8F0"/>
  <path d="M13 22 Q9 11 19 8 Q22 14 21 21 Z" fill="#8B5E3C" stroke="#2B2118" stroke-width="2.4" stroke-linejoin="round"/>
  <path d="M51 22 Q55 11 45 8 Q42 14 43 21 Z" fill="#8B5E3C" stroke="#2B2118" stroke-width="2.4" stroke-linejoin="round"/>
  <path d="M12 27 Q12 12 32 12 Q52 12 52 27 L52 39 Q52 55 32 55 Q12 55 12 39 Z" fill="#8B5E3C" stroke="#2B2118" stroke-width="2.6" stroke-linejoin="round"/>
  <circle cx="23" cy="31" r="11.5" fill="#FFF7E8" stroke="#2B2118" stroke-width="2.6"/>
  <circle cx="41" cy="31" r="11.5" fill="#FFF7E8" stroke="#2B2118" stroke-width="2.6"/>
  <circle cx="23" cy="31" r="5.2" fill="#3B2A20"/>
  <circle cx="41" cy="31" r="5.2" fill="#3B2A20"/>
  <circle cx="21" cy="28.5" r="1.5" fill="#fff"/>
  <circle cx="39" cy="28.5" r="1.5" fill="#fff"/>
  <polygon points="32,37 27.5,43.5 36.5,43.5" fill="#FFB74D" stroke="#2B2118" stroke-width="1.8" stroke-linejoin="round"/>
</svg>
