<svg version="1.1" xmlns="http://www.w3.org/2000/svg" viewBox="0 0 2048 2048" width="36" height="36" preserveAspectRatio="none">
<path transform="translate(0,0)" fill="rgb(182,97,49)" d="M 1751.75 60.2033 C 1768.54 59.7838 1774.83 66.991 1779.47 82.7387 C 1784.57 102.385 1788.89 123.506 1791.46 143.702 C 1798.47 198.728 1807.75 253.619 1815.54 308.467 C 1820.39 344.263 1824.96 380.096 1829.26 415.962 C 1847.12 546.325 1862.72 676.987 1876.06 807.89 C 1887.88 908.908 1897.75 1010.15 1905.65 1111.55 C 1915.15 1247.48 1916.47 1374.35 1868.36 1503.66 C 1858.36 1530.55 1844.9 1556.82 1831.1 1581.89 C 1808.51 1623.5 1781.52 1662.56 1750.58 1698.39 C 1656.72 1806.13 1509.01 1896.39 1372.99 1939.93 C 1296.07 1964.55 1197.94 1980.07 1117.81 1985.45 C 1082.83 1987.5 1047.79 1988.36 1012.76 1988.04 C 764.775 1987.78 552.516 1927.14 362.995 1761.69 C 215.826 1636.67 135.644 1435.91 137.833 1244.76 C 139.238 1122.04 154.497 999.313 167.292 877.43 C 182.189 726.339 199.75 575.522 219.966 425.05 C 227.987 367.192 238.432 309.684 247.286 251.967 C 252.152 220.242 269.313 94.1759 282.009 73.5845 C 286.275 66.6659 292.462 61.9035 300.666 61.026 C 307.921 60.2499 314.861 61.8965 321.646 64.3108 C 341.062 71.2201 359.283 81.8725 377.805 90.8113 C 415.744 109.121 455.931 128.223 495.534 142.296 C 529.831 154.483 572.502 166.989 607.845 175.553 C 620.98 178.736 634.333 180.862 647.492 183.919 C 675.875 190.514 702.914 197.38 731.819 201.765 C 832.016 216.193 933.2 222.656 1034.42 221.092 C 1090.61 219.393 1146.74 216.013 1202.73 210.954 C 1299.7 203.166 1408.05 188.782 1501.53 160.174 C 1518.4 155.01 1537.01 147.934 1554.08 142.298 C 1573.52 135.878 1598.52 128.904 1616.67 120.433 C 1651.8 104.034 1686.93 86.2027 1722.73 71.1832 C 1731.49 67.5106 1742.69 62.2756 1751.75 60.2033 z"/>
<path transform="translate(0,0)" fill="rgb(230,151,82)" d="M 1021.72 469.816 C 1031.93 461.297 1041.58 451.676 1051.61 442.844 C 1145.65 359.992 1251.26 312.733 1378.52 324.275 C 1473.84 332.073 1563.22 373.709 1630.51 441.658 C 1658.7 470.203 1669.63 486.47 1689.21 520.415 C 1782.73 683.144 1754.94 883.562 1607.05 1003.68 C 1525.87 1069.61 1422.69 1097.6 1318.99 1088.29 C 1269.5 1083.85 1178.78 1052.34 1139.59 1021.76 C 1116.42 1060.99 1086.31 1097.19 1048.38 1123 C 1027.18 1138.13 1012.11 1129.36 993.432 1115.64 C 957.204 1089.03 930.936 1054.25 907.873 1016.3 C 834.32 1064.02 738.722 1097.1 649.887 1088.32 C 635.568 1086.9 621.317 1084.4 607.241 1081.39 C 505.637 1060.69 416.627 999.999 360.249 912.973 C 247.312 738.479 316.799 492.003 488.508 383.037 C 576.857 326.97 684.591 309.363 786.493 332.584 C 881.208 354.08 951.396 406.132 1021.72 469.816 z"/>
<path transform="translate(0,0)" fill="rgb(254,215,55)" d="M 907.873 1016.3 C 901.061 1002.87 882.003 969.563 887.861 955.624 C 890.926 948.332 911.728 924.157 918.062 914.81 C 930.627 896.266 953.218 876.65 973.896 867.975 C 1003.63 855.166 1038.86 852.971 1069.41 864.432 C 1103.38 877.181 1120.96 903.89 1142.28 930.603 C 1163.32 956.976 1170.38 956.397 1154.72 991.407 C 1150.09 1001.73 1145.04 1011.85 1139.59 1021.76 C 1116.42 1060.99 1086.31 1097.19 1048.38 1123 C 1027.18 1138.13 1012.11 1129.36 993.432 1115.64 C 957.204 1089.03 930.936 1054.25 907.873 1016.3 z"/>
<path transform="translate(0,0)" fill="rgb(255,255,255)" d="M 1334.92 431.409 C 1488.92 415.576 1626.54 527.692 1642.17 681.707 C 1657.8 835.722 1545.5 973.2 1391.47 988.625 C 1237.72 1004.02 1100.56 891.979 1084.96 738.252 C 1069.36 584.525 1181.22 447.213 1334.92 431.409 z"/>
<path transform="translate(0,0)" fill="rgb(69,23,0)" d="M 1356.57 555.579 C 1441.95 551.249 1514.7 616.909 1519.11 702.288 C 1523.53 787.666 1457.94 860.48 1372.57 864.979 C 1287.07 869.485 1214.14 803.785 1209.71 718.287 C 1205.29 632.788 1271.07 559.916 1356.57 555.579 z"/>
<path transform="translate(0,0)" fill="rgb(255,255,255)" d="M 658.751 431.828 C 812.655 417.86 948.686 531.435 962.413 685.361 C 976.139 839.287 862.351 975.14 708.404 988.625 C 554.797 1002.08 419.311 888.599 405.615 735.014 C 391.919 581.429 505.187 445.765 658.751 431.828 z"/>
<path transform="translate(0,0)" fill="rgb(69,23,0)" d="M 679.79 556.494 C 764.666 554.163 835.38 621.039 837.786 705.912 C 840.191 790.785 773.378 861.558 688.507 864.039 C 603.531 866.522 532.65 799.608 530.241 714.629 C 527.833 629.65 594.809 558.828 679.79 556.494 z"/>
<path transform="translate(0,0)" fill="rgb(230,151,82)" d="M 330.653 154.169 C 349.423 152.515 377.23 166.265 393.845 175.37 C 446.285 204.108 494.62 217.948 552.212 233.07 C 507.471 251.677 464.263 273.773 422.985 299.152 C 377.149 326.215 332.758 354.076 292.479 389.297 C 293.325 355.272 317.965 174.695 330.653 154.169 z"/>
<path transform="translate(0,0)" fill="rgb(230,151,82)" d="M 1714.5 153.194 C 1717.72 153.258 1717.58 153.074 1720.26 154.792 C 1732.17 173.81 1752.97 352.856 1755.7 385.816 C 1750.43 382.106 1744.97 377.528 1739.97 373.43 C 1706.42 345.91 1672.12 320.853 1634.8 298.698 C 1624.27 291.548 1609.8 283.708 1598.74 277.349 C 1567.22 259.238 1537.15 244.18 1503.53 230.699 C 1508.77 229.284 1515.15 227.976 1520.5 226.933 C 1565.44 218.16 1605.28 200.508 1646.5 180.995 C 1666.22 171.659 1693.36 156.747 1714.5 153.194 z"/>
<path transform="translate(0,0)" fill="rgb(230,151,82)" d="M 1162.65 1527.23 C 1167.23 1528.33 1173.7 1530.92 1178.19 1532.68 C 1244.42 1558.58 1321.67 1562.02 1386.68 1530.66 C 1389.93 1529.09 1391.27 1529.24 1394.28 1530.51 C 1404.23 1542.65 1380.6 1581.88 1372.78 1592.53 C 1365.46 1601.58 1357.26 1609.89 1348.3 1617.34 C 1275.55 1676.91 1152.88 1621.18 1162.65 1527.23 z"/>
<path transform="translate(0,0)" fill="rgb(230,151,82)" d="M 1135.14 1695.98 C 1139.72 1696.89 1141.3 1701.23 1140.71 1705.45 C 1126.26 1809.55 1000.15 1847.5 931.956 1766.38 C 914.965 1744.87 909.014 1722.62 906.825 1695.99 C 921.093 1701.69 939.908 1709.96 954.138 1714.55 C 994.992 1727.85 1038.93 1728.39 1080.1 1716.11 C 1098.48 1710.52 1116.56 1702.12 1135.14 1695.98 z"/>
<path transform="translate(0,0)" fill="rgb(230,151,82)" d="M 884.908 1529.94 L 886.122 1531.13 C 888.976 1541.27 883.39 1556.87 879.336 1566.46 C 870.76 1586.74 856.151 1605.31 838.539 1618.55 C 813.913 1637.3 782.754 1645.29 752.147 1640.71 C 719.37 1635.98 698.342 1622.71 679.074 1596.71 C 672.156 1586.01 647.808 1542.79 658.45 1532.07 C 664.603 1531.61 679.719 1538 686.336 1540.78 C 729.853 1559.05 788.135 1558.27 833.653 1548.79 C 847.538 1545.9 871.514 1535.89 884.908 1529.94 z"/>
</svg>