<svg version="1.1" xmlns="http://www.w3.org/2000/svg" style="display: block;" viewBox="0 0 1872 1984" width="468" height="496" preserveAspectRatio="none">
<path transform="translate(0,0)" fill="rgb(172,99,60)" d="M 324.37 148.92 C 336.285 153.733 349.778 160.895 361.611 166.459 C 668.337 310.701 987.19 342.055 1311.58 240 C 1364.21 223.414 1415.88 203.922 1466.35 181.614 C 1479.31 176.036 1492.13 170.127 1504.79 163.892 C 1513.99 159.408 1526.43 152.801 1535.79 149.562 L 1537.21 149.083 C 1547.18 202.007 1555.45 263.656 1561.94 316.933 C 1576.73 437.701 1585.63 559.119 1588.61 680.754 C 1589.6 719.988 1588.44 760.319 1589.04 799.819 C 1663.23 943.924 1676.88 1111.66 1626.98 1265.87 C 1586.57 1390.57 1501.17 1493 1394.66 1567.24 L 1393.42 1568.53 C 1384.04 1578.38 1374.93 1590.89 1366.13 1601.54 C 1351.67 1619.08 1336.04 1635.62 1319.35 1651.06 C 1305.43 1663.78 1291.82 1675.03 1276.93 1686.47 C 1269 1692.57 1250.65 1704.29 1244.24 1710.53 C 1253.09 1717.31 1260.87 1723.31 1268.48 1731.85 C 1286.74 1752.36 1298.05 1790.52 1280.44 1814.61 C 1266.35 1833.9 1245.4 1833.2 1227.78 1818.57 C 1223.86 1815.34 1220.34 1811.65 1217.29 1807.58 C 1196.59 1840.67 1168.17 1835.96 1148.27 1805.81 C 1144.04 1816.17 1138.34 1823.33 1127.55 1827.9 C 1118.57 1831.63 1108.49 1831.68 1099.47 1828.05 C 1068.93 1815.6 1078.22 1786.51 1072.04 1779.26 C 1063.15 1781.99 1040.92 1784.69 1030.73 1786.15 C 947.776 1798 869.354 1793.88 787.194 1779.25 C 785.89 1783.02 786.038 1792.36 785.441 1796.74 C 782.627 1817.81 764.195 1833.7 742.39 1830.14 C 727.78 1827.76 720.064 1818.78 711.636 1807.71 C 691.555 1839.1 664.23 1836.93 643.827 1807.62 C 639.941 1812.2 635.955 1816.88 631.297 1820.43 C 597.386 1846.28 565.574 1811.5 572.759 1775.68 C 579.596 1741.6 591.87 1729.16 617.929 1709.83 C 570.723 1679.04 528.61 1643.11 493.07 1599.27 C 484.843 1589.12 476.609 1578.03 467.589 1568.67 L 466.321 1567.37 C 446.34 1553 428.736 1540.21 410.07 1524.15 C 331.074 1457.16 271.195 1370.47 236.503 1272.88 C 194.776 1152.01 194.909 1004.04 235.851 883.027 C 246.315 852.098 257.488 829.21 271.554 800.276 C 272.966 790.518 272.011 744.607 272.009 732.278 C 271.785 693.991 272.64 655.706 274.574 617.467 C 278.981 509.962 288.088 402.701 301.871 295.992 C 307.877 249.442 315.153 194.973 324.37 148.92 z"/>
<path transform="translate(0,0)" fill="rgb(127,59,28)" d="M 1589.04 799.819 C 1663.23 943.924 1676.88 1111.66 1626.98 1265.87 C 1586.57 1390.57 1501.17 1493 1394.66 1567.24 C 1393.78 1566.69 1392.92 1566.13 1392.09 1565.5 C 1380.87 1556.95 1345.53 1404.59 1341.62 1384.75 C 1334.96 1350.43 1329.36 1315.91 1324.85 1281.24 C 1321.43 1254.23 1320.82 1231.09 1319.62 1204.67 C 1315.07 1104.62 1335.81 1009.66 1398.29 929.496 C 1436.74 880.16 1491.16 838.191 1548.89 813.958 C 1559.07 809.682 1578.43 801.164 1589.04 799.819 z"/>
<path transform="translate(0,0)" fill="rgb(127,59,28)" d="M 271.554 800.276 C 286.088 801.782 300.553 809.005 313.987 814.753 C 370.563 838.96 419.943 877.236 459.012 924.666 C 555.406 1041.69 552.342 1195.54 528.024 1337.56 C 522.675 1368.25 516.418 1398.79 509.261 1429.11 C 503.538 1452.53 479.997 1555.46 466.321 1567.37 C 446.34 1553 428.736 1540.21 410.07 1524.15 C 331.074 1457.16 271.195 1370.47 236.503 1272.88 C 194.776 1152.01 194.909 1004.04 235.851 883.027 C 246.315 852.098 257.488 829.21 271.554 800.276 z"/>
<path transform="translate(0,0)" fill="rgb(127,59,28)" d="M 304.938 867.234 C 318.145 866.571 328.753 866.307 340.604 873.269 C 352.471 880.242 362.435 895.084 363.653 908.781 C 365.071 924.717 357.074 946.38 352.929 962.172 C 349.878 973.764 347.243 985.463 345.03 997.244 C 326.101 1098.15 340.879 1215.71 389.23 1306.67 C 395.858 1319.14 405.96 1334.23 409.348 1347.72 C 412.395 1360.11 410.327 1373.21 403.611 1384.06 C 396.084 1396.33 385.092 1403.46 371.312 1406.87 C 358.57 1407.76 346.272 1407.95 335.028 1400.81 C 300.768 1379.05 262.803 1264.73 253.575 1223.66 C 232.485 1131.51 232.955 1035.73 254.949 943.786 C 262.486 911.88 268.218 875.478 304.938 867.234 z"/>
<path transform="translate(0,0)" fill="rgb(127,59,28)" d="M 434.833 1410.48 C 461.872 1406.95 486.702 1425.88 490.458 1452.89 C 494.213 1479.9 475.49 1504.88 448.512 1508.86 C 421.218 1512.89 395.874 1493.89 392.074 1466.57 C 388.275 1439.24 407.476 1414.05 434.833 1410.48 z"/>
<path transform="translate(0,0)" fill="rgb(248,214,74)" d="M 1072.04 1779.26 C 1074.03 1777.44 1076.57 1768.16 1077.36 1765.17 C 1092.93 1706.49 1163.5 1682.18 1217.52 1699.22 C 1226.75 1702.13 1235.34 1706.61 1244.24 1710.53 C 1253.09 1717.31 1260.87 1723.31 1268.48 1731.85 C 1286.74 1752.36 1298.05 1790.52 1280.44 1814.61 C 1266.35 1833.9 1245.4 1833.2 1227.78 1818.57 C 1223.86 1815.34 1220.34 1811.65 1217.29 1807.58 C 1196.59 1840.67 1168.17 1835.96 1148.27 1805.81 C 1144.04 1816.17 1138.34 1823.33 1127.55 1827.9 C 1118.57 1831.63 1108.49 1831.68 1099.47 1828.05 C 1068.93 1815.6 1078.22 1786.51 1072.04 1779.26 z"/>
<path transform="translate(0,0)" fill="rgb(248,214,74)" d="M 617.929 1709.83 C 655.409 1692.79 683.297 1688.22 723.883 1702.07 C 753.739 1712.27 786.245 1746.42 787.194 1779.25 C 785.89 1783.02 786.038 1792.36 785.441 1796.74 C 782.627 1817.81 764.195 1833.7 742.39 1830.14 C 727.78 1827.76 720.064 1818.78 711.636 1807.71 C 691.555 1839.1 664.23 1836.93 643.827 1807.62 C 639.941 1812.2 635.955 1816.88 631.297 1820.43 C 597.386 1846.28 565.574 1811.5 572.759 1775.68 C 579.596 1741.6 591.87 1729.16 617.929 1709.83 z"/>
<path transform="translate(0,0)" fill="rgb(224,156,100)" d="M 930.401 407.48 C 944.801 396.771 957.887 387.652 973.55 378.883 C 1056.68 332.674 1154.78 321.412 1246.22 347.578 C 1330.2 370.845 1401.48 426.548 1444.36 502.412 C 1482.96 571.567 1492.24 653.3 1470.13 729.348 C 1447.5 807.745 1390.79 875.69 1319.49 914.778 C 1250.44 952.641 1170.86 966.758 1093 954.955 C 1071.02 951.619 1049.92 945.989 1028.63 939.752 C 1014.62 978.6 968.395 1008.28 932.167 1025.45 C 931.436 1025.79 930.699 1026.12 929.958 1026.44 C 893.171 1005.2 848.764 982.88 832.215 940.642 C 827.827 941.282 823.354 942.485 819.065 943.668 C 802.187 948.321 785.832 952.144 768.488 954.813 C 676.162 969.391 581.829 946.654 506.282 891.615 C 438.587 841.847 395.007 772.202 382.341 688.836 C 370.99 610.414 391.448 530.708 439.165 467.447 C 542.33 327.966 747.222 294.562 894.175 382.345 C 907.032 390.024 918.381 398.578 930.401 407.48 z"/>
<path transform="translate(0,0)" fill="rgb(248,214,74)" d="M 832.215 940.642 C 830.785 923.502 828.44 920.724 832.97 901.767 C 839.119 875.923 855.291 853.585 877.922 839.674 C 901.294 825.602 929.299 821.396 955.773 827.981 C 981.244 834.491 1003.11 850.801 1016.61 873.358 C 1028.2 893.152 1034.4 917.136 1028.63 939.752 C 1014.62 978.6 968.395 1008.28 932.167 1025.45 C 931.436 1025.79 930.699 1026.12 929.958 1026.44 C 893.171 1005.2 848.764 982.88 832.215 940.642 z"/>
<path transform="translate(0,0)" fill="rgb(248,249,249)" d="M 654.839 420.344 C 782.012 411.337 892.412 507.12 901.436 634.291 C 910.459 761.463 814.689 871.875 687.518 880.913 C 560.326 889.953 449.892 794.163 440.867 666.97 C 431.842 539.777 527.645 429.354 654.839 420.344 z"/>
<path transform="translate(0,0)" fill="rgb(55,21,2)" d="M 660.338 525.513 C 725.316 520.847 781.727 569.843 786.203 634.834 C 790.68 699.825 741.519 756.093 676.516 760.38 C 611.78 764.649 555.793 715.735 551.335 651.011 C 546.877 586.288 595.628 530.159 660.338 525.513 z"/>
<path transform="translate(0,0)" fill="rgb(248,249,249)" d="M 1159.36 420.206 C 1286.42 412.455 1395.77 509.016 1403.81 636.057 C 1411.85 763.098 1315.54 872.673 1188.51 880.998 C 1061.08 889.35 951.082 792.66 943.018 665.212 C 934.955 537.764 1031.89 427.981 1159.36 420.206 z"/>
<path transform="translate(0,0)" fill="rgb(55,21,2)" d="M 1183.33 525.523 C 1248.01 520.459 1304.61 568.665 1309.89 633.329 C 1315.18 697.993 1267.16 754.751 1202.52 760.258 C 1137.56 765.791 1080.47 717.495 1075.16 652.517 C 1069.84 587.54 1118.34 530.613 1183.33 525.523 z"/>
<path transform="translate(0,0)" fill="rgb(224,156,100)" d="M 361.302 219.853 C 392.911 233.371 424.764 246.31 456.846 258.664 C 487.102 269.765 517.545 280.353 548.161 290.422 C 533.481 294.811 477.84 326.394 460.117 335.861 L 383.2 377.398 C 368.762 385.212 352.78 394.659 337.966 401.09 C 339.315 392.561 340.135 382.862 341.009 374.211 C 346.236 322.478 354.084 271.299 361.302 219.853 z"/>
<path transform="translate(0,0)" fill="rgb(224,156,100)" d="M 1496.28 220.883 C 1498.29 220.656 1497.28 220.638 1499.36 221.559 C 1502.22 228.021 1504.67 251.327 1505.84 260.114 C 1509.78 288.669 1513.39 317.267 1516.66 345.905 C 1518.3 360.37 1520.72 388.637 1523.57 401.789 C 1487.17 384.084 1443.11 358.708 1406.9 339.115 C 1389.4 329.429 1329.56 295.415 1312.93 290.804 C 1334.11 282.008 1363.31 273.632 1385.8 265.562 C 1423.18 252.061 1460.03 237.157 1496.28 220.883 z"/>
<path transform="translate(0,0)" fill="rgb(224,156,100)" d="M 833.858 1498.74 C 844.954 1499.55 883.34 1511.84 898.082 1515.02 C 951.783 1526.6 978.408 1507.38 1026.96 1498.88 C 1023.79 1516.29 1018.85 1526.38 1008.69 1540.49 C 1008.3 1541.04 1007.91 1541.59 1007.5 1542.12 C 970.274 1591.09 893.862 1592.29 855.186 1544.15 C 845.267 1531.81 836 1514.64 833.858 1498.74 z"/>
<path transform="translate(0,0)" fill="rgb(224,156,100)" d="M 1217.73 1371.28 L 1218.62 1372.12 C 1218.61 1372.68 1218.6 1373.24 1218.59 1373.8 C 1210.91 1419.83 1167.54 1452.56 1121.36 1450.37 C 1092.06 1448.99 1071.85 1436.38 1052.68 1415.18 C 1041.79 1402.6 1036.96 1386.34 1032.02 1370.88 C 1053.68 1375.56 1074.79 1381.24 1096.39 1385.78 C 1138.12 1394.54 1177.01 1381.41 1217.73 1371.28 z"/>
<path transform="translate(0,0)" fill="rgb(224,156,100)" d="M 641.352 1370.47 C 681.839 1380.05 720.267 1394.99 762.105 1386.44 C 784.495 1381.86 806.187 1375.59 828.68 1370.96 C 823.69 1387.82 821.203 1398.14 810.815 1412.55 C 796.643 1430.98 776.301 1443.69 753.519 1448.34 C 729.012 1453.57 703.43 1448.54 682.738 1434.4 C 659.914 1419.02 646.405 1397.29 641.352 1370.47 z"/>
</svg>