<svg version="1.1" xmlns="http://www.w3.org/2000/svg" viewBox="0 0 2048 1905" width="36" height="36" preserveAspectRatio="none">
<defs>
	<linearGradient id="Gradient1" gradientUnits="userSpaceOnUse" x1="1086.71" y1="390.486" x2="1178.61" y2="563.631">
		<stop class="stop0" offset="0" stop-opacity="1" stop-color="rgb(53,23,5)"/>
		<stop class="stop1" offset="1" stop-opacity="1" stop-color="rgb(127,70,40)"/>
	</linearGradient>
	<linearGradient id="Gradient2" gradientUnits="userSpaceOnUse" x1="1445.44" y1="522.755" x2="367.046" y2="1170.09">
		<stop class="stop0" offset="0" stop-opacity="1" stop-color="rgb(217,163,108)"/>
		<stop class="stop1" offset="1" stop-opacity="1" stop-color="rgb(242,216,100)"/>
	</linearGradient>
</defs>
<path transform="translate(0,0)" fill="rgb(54,24,5)" d="M 316.127 159.452 C 327.129 159.051 343.135 158.3 353.725 158.966 C 365.046 159.678 380.05 168.753 392.368 172.478 C 418.556 180.399 455.943 190.445 480.23 202.582 C 550.523 237.709 660.918 307.209 711.183 366.113 C 716.906 360.307 721.679 354.459 727.819 348.494 C 750.451 326.398 776.898 308.583 805.879 295.913 C 859.372 272.418 920.308 269.215 977.183 279.787 C 990.387 282.242 1008.57 286.077 1021.03 290.945 C 1056.76 275.585 1088.31 251.815 1125.58 240.04 C 1154.82 230.799 1184.77 229.94 1215.09 231.387 C 1262.51 233.65 1305.5 249.766 1347.65 270.615 C 1447.95 320.377 1532.63 396.78 1592.41 491.458 C 1813.49 840.503 1736.51 1385.4 1376.46 1613.73 C 1352.57 1629.07 1327.57 1642.6 1301.67 1654.22 C 1239.97 1681.17 1173.01 1697.68 1105.48 1690.92 C 999.329 1680.29 934.468 1608.69 880.56 1523.81 C 859.059 1489.95 833.964 1447.68 809.031 1416.92 C 781.162 1382.77 747.866 1353.44 710.476 1330.09 C 649.835 1292.22 575.032 1270.56 503.993 1267.44 C 464.382 1264.67 421.786 1266.52 384.384 1251.52 C 321.016 1226.09 310.196 1176.25 335.076 1116.63 C 368.054 1037.61 440.619 988.612 516.58 956.24 C 544.498 944.343 574.31 938.014 602.639 926.153 C 590.247 900.105 559.812 857.296 542.852 830.813 C 508.486 776.592 472.142 723.649 433.895 672.092 C 369.261 584.315 301.369 498.804 237.061 410.815 C 217.09 383.491 199.937 341.639 180.89 313.009 L 180.014 311.706 C 179.936 304.436 178.907 267.527 180.463 263.364 C 202.759 203.715 250.638 161.366 316.127 159.452 z"/>
<path transform="translate(0,0)" fill="url(#Gradient2)" d="M 238.71 258.031 C 246.604 243.361 273.435 216.788 289.627 213.847 C 355.232 201.928 437.324 232.766 492.902 263.553 C 565.257 303.633 625.377 350.93 685.733 406.217 C 696.461 416.146 709.149 425.95 719.372 435.996 C 740.339 456.599 761.345 478.064 781.348 499.634 C 798.607 518.244 820.167 537.123 836.883 555.312 C 810.12 554.691 781.521 553.433 755.308 559.677 C 732.998 570.208 718.765 578.81 701.19 596.644 C 661.522 636.896 661.655 698.752 692.929 744.548 C 691.503 735.172 691.535 726.335 690.943 717.032 C 688.852 684.164 691.749 653.135 711.786 625.732 C 728.385 603.032 751.143 592.685 778.041 586.665 L 778.299 585.405 C 789.114 580.245 831.253 582.967 843.651 584.412 C 854.157 585.637 869.87 590.675 879.904 589.793 C 880.091 589.27 880.277 588.748 880.463 588.225 C 881.222 581.779 886.02 579.6 889.217 571.437 C 889.154 570.68 889.09 569.923 889.026 569.166 C 871.374 558.79 830.311 522.55 822.16 506.133 C 804.429 486.626 787.08 466.658 769.363 447.176 C 758.426 435.149 744.955 423.27 733.937 411.197 C 770.409 365.04 825.035 329.786 884.369 323.348 C 956.911 315.478 1024.73 343.137 1091.63 367.134 C 1109.31 373.473 1135.83 384.79 1152.98 388.057 C 1133.5 365.489 1113.61 349.698 1087.75 335.293 C 1082.77 332.524 1075.1 328.107 1072.23 323.312 C 1073.83 311.898 1117.94 294.817 1128.6 290.536 C 1165.07 275.874 1209.24 278.148 1247.53 283.613 C 1284.2 285.846 1301.37 299.747 1331.62 314.945 C 1410.25 354.445 1477.21 411.791 1528.93 483.387 C 1644.76 643.69 1692.56 862.494 1659.89 1057.1 C 1651.79 1105.36 1642.98 1153.55 1628.04 1200.15 C 1585.22 1327.56 1510.95 1455.7 1400.36 1534.64 C 1398.67 1535.83 1396.93 1536.97 1395.16 1538.04 C 1313.36 1599.05 1207.87 1656.31 1103.17 1641.88 C 967.908 1623.23 925.501 1485.73 852.612 1392.79 C 784.867 1306.55 687.495 1248.55 579.398 1230.06 C 530.37 1221.28 480.355 1219.89 431.143 1212.65 C 382.319 1205.46 366.25 1198.15 375.65 1146.77 C 381.578 1131.42 386.01 1120.16 395.227 1105.95 C 432.999 1047.72 500.507 1013.16 564.67 991.97 C 592.133 982.898 618.765 977.89 646.558 971.671 C 664.137 995.355 702.456 1066.57 710.587 1093.83 C 717.593 1104.43 753.511 1189.67 770.067 1178.65 C 776.923 1158.7 709.076 1027.65 697.024 1002.48 C 595.084 789.573 440.339 608.559 303.238 418.26 C 284.967 392.899 266.508 367.294 251.774 339.708 C 240.838 319.5 235.687 300.844 228.176 279.559 C 231.785 272.585 235.266 265.121 238.71 258.031 z"/>
<path transform="translate(0,0)" fill="rgb(163,103,69)" d="M 1152.98 388.057 C 1133.5 365.489 1113.61 349.698 1087.75 335.293 C 1082.77 332.524 1075.1 328.107 1072.23 323.312 C 1073.83 311.898 1117.94 294.817 1128.6 290.536 C 1165.07 275.874 1209.24 278.148 1247.53 283.613 C 1284.2 285.846 1301.37 299.747 1331.62 314.945 C 1410.25 354.445 1477.21 411.791 1528.93 483.387 C 1644.76 643.69 1692.56 862.494 1659.89 1057.1 C 1651.79 1105.36 1642.98 1153.55 1628.04 1200.15 C 1585.22 1327.56 1510.95 1455.7 1400.36 1534.64 C 1398.67 1535.83 1396.93 1536.97 1395.16 1538.04 C 1391.21 1533.42 1393.73 1528.61 1396.02 1523.59 C 1410.98 1490.77 1426.8 1457.84 1447.74 1428.32 C 1459.76 1411.37 1466.81 1396.88 1475.54 1378.23 C 1481.03 1366.5 1488.91 1354.71 1494.72 1342.74 C 1509.73 1311.42 1522.56 1279.1 1533.14 1246.01 C 1540.88 1221.23 1544.9 1195.93 1552.51 1171.14 C 1555.28 1162.12 1557.74 1152.92 1559.62 1143.67 C 1598.22 955.54 1572.22 759.889 1485.84 588.361 C 1463.52 543.134 1426.63 495.837 1401.81 448.402 C 1403.9 446.98 1406.37 446.079 1406.25 443.225 C 1405.86 433.879 1397.9 424.688 1391.58 418.674 C 1357.46 386.225 1312.34 393.777 1282.45 427.639 C 1275.67 435.319 1270.33 442.49 1264.65 451.115 C 1162.9 404.698 972.879 391.789 917.848 513.783 C 908.711 534.04 907.393 550.076 903.568 571.238 C 883.004 573.909 836.163 519.432 822.16 506.133 C 804.429 486.626 787.08 466.658 769.363 447.176 C 758.426 435.149 744.955 423.27 733.937 411.197 C 770.409 365.04 825.035 329.786 884.369 323.348 C 956.911 315.478 1024.73 343.137 1091.63 367.134 C 1109.31 373.473 1135.83 384.79 1152.98 388.057 z"/>
<path transform="translate(0,0)" fill="rgb(163,103,69)" d="M 238.71 258.031 C 246.604 243.361 273.435 216.788 289.627 213.847 C 355.232 201.928 437.324 232.766 492.902 263.553 C 565.257 303.633 625.377 350.93 685.733 406.217 C 696.461 416.146 709.149 425.95 719.372 435.996 C 740.339 456.599 761.345 478.064 781.348 499.634 C 798.607 518.244 820.167 537.123 836.883 555.312 C 810.12 554.691 781.521 553.433 755.308 559.677 C 753.143 545.616 716.241 515.84 705.728 505.563 C 693.916 494.016 679.752 480.251 667.424 469.255 C 624.15 430.657 577.562 395.898 530.364 362.295 C 487.264 331.755 444.786 300.348 394.55 282.33 C 355.536 268.337 312.529 261.147 271.219 257.643 C 263.098 256.954 248.138 258.115 238.71 258.031 z"/>
<path transform="translate(0,0)" fill="rgb(163,103,69)" d="M 375.65 1146.77 C 381.578 1131.42 386.01 1120.16 395.227 1105.95 C 432.999 1047.72 500.507 1013.16 564.67 991.97 C 592.133 982.898 618.765 977.89 646.558 971.671 C 664.137 995.355 702.456 1066.57 710.587 1093.83 C 625.452 1082.54 536.088 1079.28 455.981 1113.81 C 436.16 1122.35 394.43 1144.38 375.65 1146.77 z"/>
<path transform="translate(0,0)" fill="url(#Gradient1)" d="M 1264.65 451.115 C 1270.33 442.49 1275.67 435.319 1282.45 427.639 C 1312.34 393.777 1357.46 386.225 1391.58 418.674 C 1397.9 424.688 1405.86 433.879 1406.25 443.225 C 1406.37 446.079 1403.9 446.98 1401.81 448.402 C 1385.1 434.79 1361.83 420.426 1339.55 423.285 C 1295.44 428.943 1290.37 468.686 1301.13 502.968 C 1229.3 461.998 1179.91 441.775 1095.01 447.65 C 983.75 455.348 922.992 489.607 938.713 611.81 C 930.082 608.27 912.954 602.096 903.966 599.59 C 900.178 591.49 902.603 580.534 903.568 571.238 C 907.393 550.076 908.711 534.04 917.848 513.783 C 972.879 391.789 1162.9 404.698 1264.65 451.115 z"/>
<path transform="translate(0,0)" fill="rgb(116,62,33)" d="M 822.16 506.133 C 836.163 519.432 883.004 573.909 903.568 571.238 C 902.603 580.534 900.178 591.49 903.966 599.59 C 855.252 585.473 828.344 581.779 778.041 586.665 L 778.299 585.405 C 789.114 580.245 831.253 582.967 843.651 584.412 C 854.157 585.637 869.87 590.675 879.904 589.793 C 880.091 589.27 880.277 588.748 880.463 588.225 C 881.222 581.779 886.02 579.6 889.217 571.437 C 889.154 570.68 889.09 569.923 889.026 569.166 C 871.374 558.79 830.311 522.55 822.16 506.133 z"/>
</svg>