<svg viewBox="0 0 64 64" xmlns="http://www.w3.org/2000/svg" role="img" aria-label="ลากเส้นต่อจุด 2">
  <defs>
    <linearGradient id="dt2C" x1="0" y1="0" x2="0" y2="1">
      <stop offset="0" stop-color="#d9bdf2"/>
      <stop offset="1" stop-color="#9c64c8"/>
    </linearGradient>
  </defs>
  <ellipse cx="32" cy="58" rx="19" ry="3.5" fill="#000" opacity="0.09"/>

  <!-- เส้นรูปมงกุฎ ต่อแล้วบางส่วน + เส้นประที่เหลือ -->
  <path d="M10 38 L10 16 L20 27 L27 10 L34 27" fill="none" stroke="#9c64c8" stroke-width="3" stroke-linecap="round" stroke-linejoin="round"/>
  <path d="M34 27 L41 10 L48 27 L54 16 L54 38 L10 38" fill="none" stroke="#c39ae4" stroke-width="2.6" stroke-linecap="round" stroke-dasharray="1.5 4.5"/>

  <!-- จุดตัวเลข -->
  <g font-family="Arial, sans-serif" font-size="5.8" font-weight="bold" text-anchor="middle">
    <circle cx="10" cy="38" r="5" fill="#f0e4fa" stroke="#9c64c8" stroke-width="2.2"/>
    <text x="10" y="40.2" fill="#6b3f95">1</text>
    <circle cx="10" cy="16" r="5" fill="#fff" stroke="#9c64c8" stroke-width="2.2"/>
    <text x="10" y="18.2" fill="#6b3f95">2</text>
    <circle cx="20" cy="27" r="5" fill="#fff" stroke="#9c64c8" stroke-width="2.2"/>
    <text x="20" y="29.2" fill="#6b3f95">3</text>
    <circle cx="27" cy="10" r="5" fill="#fff" stroke="#9c64c8" stroke-width="2.2"/>
    <text x="27" y="12.2" fill="#6b3f95">4</text>
    <circle cx="34" cy="27" r="5" fill="#fff" stroke="#9c64c8" stroke-width="2.2"/>
    <text x="34" y="29.2" fill="#6b3f95">5</text>
    <circle cx="41" cy="10" r="5" fill="#fff" stroke="#c39ae4" stroke-width="2.2"/>
    <text x="41" y="12.2" fill="#8f68b5">6</text>
    <circle cx="48" cy="27" r="5" fill="#fff" stroke="#c39ae4" stroke-width="2.2"/>
    <text x="48" y="29.2" fill="#8f68b5">7</text>
    <circle cx="54" cy="16" r="5" fill="#fff" stroke="#c39ae4" stroke-width="2.2"/>
    <text x="54" y="18.2" fill="#8f68b5">8</text>
  </g>

  <!-- สีเทียน -->
  <g transform="rotate(34 44 50)">
    <rect x="39" y="44" width="10" height="14" rx="2.4" fill="url(#dt2C)" stroke="#6b3f95" stroke-width="2"/>
    <path d="M39 44 L44 36.5 L49 44 Z" fill="#c39ae4" stroke="#6b3f95" stroke-width="2" stroke-linejoin="round"/>
    <rect x="39" y="49" width="10" height="3.4" fill="#fff" opacity="0.35"/>
  </g>
</svg>
