<svg viewBox="0 0 64 64" xmlns="http://www.w3.org/2000/svg" role="img" aria-label="นกฮูกใกล้โตเต็มวัย">
  <ellipse cx="32" cy="60" rx="15" ry="2.8" fill="#000" opacity=".1"/>
  <g stroke="#F5B93C" stroke-width="2.2" stroke-linecap="round" fill="none">
    <path d="M26 56 v5 M26 61 l-3.2 2.2 M26 61 l3.2 2.2"/>
    <path d="M38 56 v5 M38 61 l-3.2 2.2 M38 61 l3.2 2.2"/>
  </g>
  <!-- ear tufts -->
  <path d="M19 16 L15 5 L27 13 Z" fill="#AC633C" stroke="#8A4A28" stroke-width="1"/>
  <path d="M45 16 L49 5 L37 13 Z" fill="#AC633C" stroke="#8A4A28" stroke-width="1"/>
  <!-- body -->
  <ellipse cx="32" cy="34" rx="17.5" ry="21.5" fill="#AC633C"/>
  <!-- wings -->
  <path d="M15.5 26 q-5.5 11 1 22 q4 -2 5 -8 Z" fill="#8A4A28"/>
  <path d="M48.5 26 q5.5 11 -1 22 q-4 -2 -5 -8 Z" fill="#8A4A28"/>
  <!-- belly/face -->
  <ellipse cx="32" cy="37" rx="12.5" ry="15.5" fill="#E09C64"/>
  <!-- eyes -->
  <circle cx="25" cy="32" r="7.8" fill="#F7F5EE"/><circle cx="39" cy="32" r="7.8" fill="#F7F5EE"/>
  <circle cx="25.7" cy="32.4" r="3.9" fill="#3A2416"/><circle cx="38.3" cy="32.4" r="3.9" fill="#3A2416"/>
  <circle cx="27.2" cy="30.9" r="1.3" fill="#fff"/><circle cx="39.8" cy="30.9" r="1.3" fill="#fff"/>
  <!-- brow -->
  <path d="M18 25 q6 -5 12 -1 M34 24 q6 -4 12 1" fill="none" stroke="#8A4A28" stroke-width="1.8" stroke-linecap="round"/>
  <!-- beak -->
  <path d="M28.6 38 h6.8 l-3.4 4.4 Z" fill="#F5B93C" stroke="#D9902B" stroke-width="1" stroke-linejoin="round"/>
</svg>
