<svg viewBox="0 0 64 64" xmlns="http://www.w3.org/2000/svg" role="img" aria-label="ฟังคำศัพท์ไทย 2">
  <defs>
    <linearGradient id="lt2G" x1="0" y1="0" x2="0" y2="1">
      <stop offset="0" stop-color="#8de3c8"/>
      <stop offset="1" stop-color="#2fae86"/>
    </linearGradient>
  </defs>
  <ellipse cx="32" cy="56" rx="18" ry="3.5" fill="#000" opacity="0.10"/>
  <!-- speech bubble -->
  <path d="M12 14h32a5 5 0 0 1 5 5v18a5 5 0 0 1-5 5H21l-9 8v-8h-0a5 5 0 0 1-5-5V19a5 5 0 0 1 5-5z"
        fill="url(#lt2G)" stroke="#1d7e5f" stroke-width="3.2" stroke-linejoin="round"/>
  <path d="M17 19h27a2 2 0 0 1 2 2v2H15v-2a2 2 0 0 1 2-2z" fill="#fff" opacity="0.25"/>
  <!-- thai letter ก -->
  <text x="27" y="33" text-anchor="middle" font-family="'Chonburi','TH Sarabun New',sans-serif" font-size="22" font-weight="700" fill="#fff">ก</text>
  <!-- sound waves -->
  <g fill="none" stroke="#1d7e5f" stroke-width="3" stroke-linecap="round">
    <path d="M50 22a12 12 0 0 1 0 16"/>
    <path d="M55 17a20 20 0 0 1 0 26"/>
  </g>
</svg>
