<svg viewBox="0 0 64 64" xmlns="http://www.w3.org/2000/svg" role="img" aria-label="จับคู่สัตว์">
  <defs>
    <linearGradient id="maA" x1="0" y1="0" x2="0" y2="1">
      <stop offset="0" stop-color="#9be9b7"/>
      <stop offset="1" stop-color="#3fc072"/>
    </linearGradient>
    <linearGradient id="maB" x1="0" y1="0" x2="0" y2="1">
      <stop offset="0" stop-color="#ffe27a"/>
      <stop offset="1" stop-color="#ffc531"/>
    </linearGradient>
  </defs>
  <ellipse cx="32" cy="57" rx="19" ry="3.5" fill="#000" opacity="0.10"/>

  <!-- card 1 (green) - cat -->
  <g transform="rotate(-7 20 30)">
    <rect x="8" y="12" width="24" height="34" rx="7" fill="url(#maA)" stroke="#2c9457" stroke-width="3"/>
    <path d="M14 24l1.5-5 3.5 3M26 24l-1.5-5-3.5 3" fill="#eafff2" stroke="#2c9457" stroke-width="2.2" stroke-linejoin="round"/>
    <circle cx="20" cy="28" r="7.5" fill="#eafff2" stroke="#2c9457" stroke-width="2.4"/>
    <g fill="#2c9457"><circle cx="17.5" cy="27" r="1.4"/><circle cx="22.5" cy="27" r="1.4"/></g>
    <path d="M18 31c1.2 1 2.8 1 4 0" fill="none" stroke="#2c9457" stroke-width="1.8" stroke-linecap="round"/>
  </g>

  <!-- card 2 (yellow) - cat match -->
  <g transform="rotate(7 44 32)">
    <rect x="32" y="16" width="24" height="34" rx="7" fill="url(#maB)" stroke="#e0a516" stroke-width="3"/>
    <path d="M38 28l1.5-5 3.5 3M50 28l-1.5-5-3.5 3" fill="#fffbe6" stroke="#e0a516" stroke-width="2.2" stroke-linejoin="round"/>
    <circle cx="44" cy="32" r="7.5" fill="#fffbe6" stroke="#e0a516" stroke-width="2.4"/>
    <g fill="#c98f10"><circle cx="41.5" cy="31" r="1.4"/><circle cx="46.5" cy="31" r="1.4"/></g>
    <path d="M42 35c1.2 1 2.8 1 4 0" fill="none" stroke="#c98f10" stroke-width="1.8" stroke-linecap="round"/>
  </g>
</svg>
