<svg viewBox="0 0 64 64" xmlns="http://www.w3.org/2000/svg" role="img" aria-label="คณิตศาสตร์">
  <defs>
    <linearGradient id="mathG" x1="0" y1="0" x2="0" y2="1">
      <stop offset="0" stop-color="#ffc79a"/>
      <stop offset="1" stop-color="#ff8a5c"/>
    </linearGradient>
  </defs>
  <ellipse cx="32" cy="57" rx="17" ry="3.5" fill="#000" opacity="0.10"/>
  <!-- calculator body -->
  <rect x="14" y="7" width="36" height="50" rx="9" fill="url(#mathG)" stroke="#d9542f" stroke-width="3"/>
  <rect x="18" y="11" width="8" height="42" rx="4" fill="#fff" opacity="0.20"/>
  <!-- screen -->
  <rect x="20" y="12" width="24" height="11" rx="3.5" fill="#fff4e6" stroke="#d9542f" stroke-width="2.5"/>
  <text x="41" y="21" font-family="Arial, sans-serif" font-size="8" font-weight="bold" fill="#d9542f" text-anchor="end">42</text>
  <!-- operator buttons (colorful) -->
  <g stroke="#d9542f" stroke-width="2">
    <circle cx="24" cy="32" r="4" fill="#ffd54f"/>
    <circle cx="34" cy="32" r="4" fill="#ffd54f"/>
    <circle cx="44" cy="32" r="4" fill="#ffd54f"/>
    <circle cx="24" cy="43" r="4" fill="#fff4e6"/>
    <circle cx="34" cy="43" r="4" fill="#fff4e6"/>
    <circle cx="44" cy="43" r="4" fill="#fff4e6"/>
  </g>
  <!-- math symbols -->
  <g stroke="#d9542f" stroke-width="1.8" stroke-linecap="round">
    <path d="M24 30v4M22 32h4"/>
    <path d="M32 32h4"/>
    <path d="M42 30l4 4M46 30l-4 4"/>
    <path d="M22 41h4M22 45h4"/>
  </g>
  <circle cx="34" cy="43" r="1.4" fill="#d9542f"/>
  <circle cx="44" cy="41" r="1.2" fill="#d9542f"/>
  <circle cx="44" cy="45" r="1.2" fill="#d9542f"/>
</svg>
