<svg viewBox="0 0 64 64" xmlns="http://www.w3.org/2000/svg" role="img" aria-label="บ้านของหนู">
  <defs>
    <linearGradient id="mhWall" x1="0" y1="0" x2="0" y2="1">
      <stop offset="0" stop-color="#fff8ea"/>
      <stop offset="1" stop-color="#ffe3b8"/>
    </linearGradient>
    <linearGradient id="mhRoof" x1="0" y1="0" x2="0" y2="1">
      <stop offset="0" stop-color="#ffb27d"/>
      <stop offset="1" stop-color="#f07a3e"/>
    </linearGradient>
    <linearGradient id="mhBush" x1="0" y1="0" x2="0" y2="1">
      <stop offset="0" stop-color="#b8e695"/>
      <stop offset="1" stop-color="#6cb54a"/>
    </linearGradient>
  </defs>
  <ellipse cx="32" cy="58" rx="19" ry="3" fill="#000" opacity="0.09"/>
  <!-- ผนังบ้าน -->
  <rect x="14" y="27" width="36" height="27" rx="3" fill="url(#mhWall)" stroke="#c98d4e" stroke-width="2.5" stroke-linejoin="round"/>
  <!-- หลังคา -->
  <path d="M8.5 31 L32 11.5 L55.5 31 z" fill="url(#mhRoof)" stroke="#c85a2d" stroke-width="2.5" stroke-linejoin="round"/>
  <path d="M14 27.5 L32 13 L37 17.2 L16.5 30 z" fill="#fff" opacity="0.16"/>
  <!-- ปล่องไฟ -->
  <rect x="42" y="14" width="6" height="10" rx="1.5" fill="#e88b60" stroke="#c85a2d" stroke-width="2"/>
  <!-- ประตู -->
  <rect x="27.5" y="38.5" width="9" height="15.5" rx="2.5" fill="#b0764a" stroke="#8a5a34" stroke-width="2"/>
  <circle cx="34" cy="46.8" r="1.2" fill="#ffd54f"/>
  <!-- หน้าต่าง 2 บาน -->
  <rect x="17" y="35.5" width="7.6" height="7.6" rx="1.8" fill="#aadcf5" stroke="#5b9fc9" stroke-width="2"/>
  <line x1="20.8" y1="36.5" x2="20.8" y2="42.2" stroke="#5b9fc9" stroke-width="1.2"/>
  <rect x="39.4" y="35.5" width="7.6" height="7.6" rx="1.8" fill="#aadcf5" stroke="#5b9fc9" stroke-width="2"/>
  <line x1="43.2" y1="36.5" x2="43.2" y2="42.2" stroke="#5b9fc9" stroke-width="1.2"/>
  <!-- พุ่มไม้หน้าบ้าน -->
  <circle cx="11.5" cy="52" r="4.6" fill="url(#mhBush)" stroke="#4e9a3f" stroke-width="2"/>
  <circle cx="53" cy="52.5" r="3.8" fill="url(#mhBush)" stroke="#4e9a3f" stroke-width="2"/>
  <!-- ประกาย -->
  <path d="M55 7 l1.2 3 3 1.2 -3 1.2 -1.2 3 -1.2-3 -3-1.2 3-1.2 z" fill="#ffd54f"/>
  <circle cx="8.5" cy="16" r="1.5" fill="#ffd54f" opacity="0.8"/>
</svg>
