<svg viewBox="0 0 64 64" xmlns="http://www.w3.org/2000/svg" role="img" aria-label="ศิลปะน่ารู้ ป.1">
  <defs>
    <linearGradient id="p1artG" x1="0" y1="0" x2="0" y2="1">
      <stop offset="0" stop-color="#ff9e6b"/>
      <stop offset="1" stop-color="#ff7a45"/>
    </linearGradient>
  </defs>
  <ellipse cx="32" cy="57" rx="18" ry="3.5" fill="#000" opacity="0.10"/>
  <!-- palette -->
  <path d="M30 9C17 9 8 18 8 30c0 8 6 12 12 12 4 0 4-3 6-3 3 0 3 4 8 4 11 0 20-8 20-19C54 15 43 9 30 9z"
        fill="url(#p1artG)" stroke="#d9542f" stroke-width="3" stroke-linejoin="round"/>
  <circle cx="20" cy="22" r="3.4" fill="#ffd54f"/>
  <circle cx="31" cy="18" r="3.4" fill="#5fd68f"/>
  <circle cx="42" cy="20" r="3.4" fill="#7db4f7"/>
  <circle cx="44" cy="31" r="3.4" fill="#ef5da8"/>
  <!-- brush -->
  <g stroke="#8a4a2a" stroke-width="3" stroke-linecap="round">
    <path d="M40 40l12 12"/>
  </g>
  <path d="M50 50l5 5c1.5 1.5-1.5 4.5-3 3l-5-5z" fill="#7db4f7" stroke="#2f6bc4" stroke-width="2"/>
  <circle cx="53" cy="53" r="9.5" fill="#fff" stroke="#d9542f" stroke-width="2.5"/>
  <text x="53" y="57.5" font-family="Arial, sans-serif" font-size="13" font-weight="bold" fill="#d9542f" text-anchor="middle">2</text>
</svg>
