<svg viewBox="0 0 64 64" xmlns="http://www.w3.org/2000/svg" role="img" aria-label="ผสมสี 1">
  <defs>
    <linearGradient id="mix1Pot" x1="0" y1="0" x2="0" y2="1">
      <stop offset="0" stop-color="#8394C7"/>
      <stop offset="1" stop-color="#6C7DB0"/>
    </linearGradient>
  </defs>
  <ellipse cx="32" cy="58" rx="21" ry="3.5" fill="#000" opacity="0.10"/>

  <!-- หยดสีแดง + เหลือง ลอยลงหม้อ -->
  <path d="M18 6c3 4 4.5 6.2 4.5 8.4a4.5 4.5 0 1 1-9 0C13.5 12.2 15 10 18 6z" fill="#E53935" stroke="#B71C1C" stroke-width="2"/>
  <path d="M46 6c3 4 4.5 6.2 4.5 8.4a4.5 4.5 0 1 1-9 0C41.5 12.2 43 10 46 6z" fill="#FDD835" stroke="#C7A500" stroke-width="2"/>

  <!-- หม้อ -->
  <circle cx="9" cy="34" r="4.5" fill="#5D6D9E"/>
  <circle cx="55" cy="34" r="4.5" fill="#5D6D9E"/>
  <rect x="10" y="24" width="44" height="7" rx="3.5" fill="#5D6D9E"/>
  <path d="M12 31h40v8c0 9.5-8 17-20 17S12 48.5 12 39v-8z" fill="url(#mix1Pot)" stroke="#4A5885" stroke-width="2.5"/>
  <!-- สีส้มในหม้อ (แดง+เหลือง) -->
  <path d="M15 34h34v5c0 7.8-6.8 14-17 14s-17-6.2-17-14v-5z" fill="#FB8C00"/>
  <ellipse cx="32" cy="35.5" rx="15" ry="2.6" fill="#FFB74D"/>
  <!-- ตายิ้มบนหม้อ -->
  <circle cx="26" cy="45" r="1.8" fill="#3B3B3B"/>
  <circle cx="38" cy="45" r="1.8" fill="#3B3B3B"/>
  <path d="M28 49.5c1.4 1.6 6.6 1.6 8 0" stroke="#3B3B3B" stroke-width="2" stroke-linecap="round" fill="none"/>
  <circle cx="53" cy="53" r="9.5" fill="#fff" stroke="#C25A34" stroke-width="2.5"/>
  <text x="53" y="56.5" font-family="Arial, sans-serif" font-size="8" font-weight="bold" fill="#C25A34" text-anchor="middle">ป.1</text>
</svg>
