<svg viewBox="0 0 64 64" xmlns="http://www.w3.org/2000/svg" role="img" aria-label="ผสมสี 2">
  <defs>
    <linearGradient id="mix2Pot" x1="0" y1="0" x2="0" y2="1">
      <stop offset="0" stop-color="#7FA6E4"/>
      <stop offset="1" stop-color="#5E8FD8"/>
    </linearGradient>
  </defs>
  <ellipse cx="32" cy="58" rx="21" ry="3.5" fill="#000" opacity="0.10"/>
  <!-- หยดสี 3 สี (ขั้นสูง) -->
  <path d="M13 6c2.6 3.4 4 5.4 4 7.3a4 4 0 1 1-8 0C9 11.4 10.4 9.4 13 6z" fill="#E53935" stroke="#B71C1C" stroke-width="1.8"/>
  <path d="M32 4c2.6 3.4 4 5.4 4 7.3a4 4 0 1 1-8 0C28 9.4 29.4 7.4 32 4z" fill="#FDD835" stroke="#C7A500" stroke-width="1.8"/>
  <path d="M51 6c2.6 3.4 4 5.4 4 7.3a4 4 0 1 1-8 0C47 11.4 48.4 9.4 51 6z" fill="#43A5F5" stroke="#1976D2" stroke-width="1.8"/>
  <!-- หม้อ -->
  <circle cx="9" cy="34" r="4.5" fill="#4D6BA6"/>
  <circle cx="55" cy="34" r="4.5" fill="#4D6BA6"/>
  <rect x="10" y="24" width="44" height="7" rx="3.5" fill="#4D6BA6"/>
  <path d="M12 31h40v8c0 9.5-8 17-20 17S12 48.5 12 39v-8z" fill="url(#mix2Pot)" stroke="#3C5590" stroke-width="2.5"/>
  <!-- สีเขียวในหม้อ (ผสมหลายสี) -->
  <path d="M15 34h34v5c0 7.8-6.8 14-17 14s-17-6.2-17-14v-5z" fill="#43B36B"/>
  <ellipse cx="32" cy="35.5" rx="15" ry="2.6" fill="#8FE0AB"/>
  <!-- ตายิ้ม -->
  <circle cx="26" cy="45" r="1.8" fill="#2E2E2E"/>
  <circle cx="38" cy="45" r="1.8" fill="#2E2E2E"/>
  <path d="M28 49.5c1.4 1.6 6.6 1.6 8 0" stroke="#2E2E2E" stroke-width="2" stroke-linecap="round" fill="none"/>
  <!-- badge 2 -->
  <circle cx="53" cy="53" r="9.5" fill="#fff" stroke="#3C79C9" stroke-width="2.5"/>
  <text x="53" y="56.7" font-family="Arial, sans-serif" font-size="11" font-weight="bold" fill="#3C79C9" text-anchor="middle">2</text>
</svg>
