<svg viewBox="0 0 64 64" xmlns="http://www.w3.org/2000/svg" role="img" aria-label="พาแมวกลับบ้าน ป.1">
  <defs>
    <linearGradient id="p1catG" x1="0" y1="0" x2="0" y2="1">
      <stop offset="0" stop-color="#ffc989"/>
      <stop offset="1" stop-color="#f4a860"/>
    </linearGradient>
  </defs>
  <ellipse cx="32" cy="57" rx="16" ry="3.5" fill="#000" opacity="0.10"/>
  <!-- ears -->
  <path d="M18 20 L12 6 L28 16 Z" fill="url(#p1catG)" stroke="#b06d2e" stroke-width="2.6" stroke-linejoin="round"/>
  <path d="M46 20 L52 6 L36 16 Z" fill="url(#p1catG)" stroke="#b06d2e" stroke-width="2.6" stroke-linejoin="round"/>
  <path d="M20 16 L16.5 8 L25 14 Z" fill="#ffb3c1"/>
  <path d="M44 16 L47.5 8 L39 14 Z" fill="#ffb3c1"/>
  <!-- head -->
  <circle cx="32" cy="34" r="20" fill="url(#p1catG)" stroke="#b06d2e" stroke-width="3"/>
  <ellipse cx="24" cy="24" rx="7" ry="4" fill="#ffe6c4" opacity="0.7"/>
  <!-- muzzle -->
  <ellipse cx="32" cy="40" rx="12" ry="9" fill="#ffe6c4"/>
  <!-- eyes -->
  <circle cx="25" cy="32" r="4" fill="#3a4a40"/><circle cx="39" cy="32" r="4" fill="#3a4a40"/>
  <circle cx="26.4" cy="30.4" r="1.3" fill="#fff"/><circle cx="40.4" cy="30.4" r="1.3" fill="#fff"/>
  <!-- nose + mouth -->
  <path d="M29 38 L35 38 L32 42 Z" fill="#ff8fa3" stroke="#b06d2e" stroke-width="1" stroke-linejoin="round"/>
  <path d="M32 42 Q28 46 24 43 M32 42 Q36 46 40 43" fill="none" stroke="#b06d2e" stroke-width="1.8" stroke-linecap="round"/>
  <!-- whiskers -->
  <g stroke="#b06d2e" stroke-width="1.4" stroke-linecap="round" opacity="0.7">
    <path d="M20 38 H8 M20 42 H9 M44 38 H56 M44 42 H55"/>
  </g>
  <!-- cheeks -->
  <circle cx="18" cy="38" r="3" fill="#ff8fa3" opacity="0.4"/><circle cx="46" cy="38" r="3" fill="#ff8fa3" opacity="0.4"/>
</svg>
