<svg viewBox="0 0 64 64" xmlns="http://www.w3.org/2000/svg" role="img" aria-label="เกมดนตรี 3">
  <defs>
    <linearGradient id="mus3Body" x1="0" y1="0" x2="0" y2="1">
      <stop offset="0" stop-color="#E5A575"/>
      <stop offset="1" stop-color="#D08A5E"/>
    </linearGradient>
  </defs>
  <ellipse cx="32" cy="58" rx="22" ry="3.5" fill="#000" opacity="0.10"/>

  <!-- ตัวเปียโน -->
  <rect x="7" y="24" width="50" height="30" rx="6" fill="url(#mus3Body)" stroke="#B57145" stroke-width="2.5"/>
  <rect x="10.5" y="34" width="43" height="17" rx="3" fill="#FFFDF7" stroke="#B57145" stroke-width="1.6"/>

  <!-- คีย์ขาว (ไม่มีแถบสี = โจทย์ไม่มีตัวโน้ตกำกับ) -->
  <g stroke="#DCC7B4" stroke-width="1.1">
    <line x1="17.6" y1="35" x2="17.6" y2="50"/>
    <line x1="24.7" y1="35" x2="24.7" y2="50"/>
    <line x1="31.8" y1="35" x2="31.8" y2="50"/>
    <line x1="38.9" y1="35" x2="38.9" y2="50"/>
    <line x1="46" y1="35" x2="46" y2="50"/>
  </g>

  <!-- คีย์ดำ -->
  <g fill="#2b2733">
    <rect x="15.5" y="34" width="4" height="9" rx="1.2"/>
    <rect x="22.6" y="34" width="4" height="9" rx="1.2"/>
    <rect x="36.8" y="34" width="4" height="9" rx="1.2"/>
    <rect x="43.9" y="34" width="4" height="9" rx="1.2"/>
  </g>

  <!-- แว่นขยาย (หาคีย์เอง) -->
  <g>
    <circle cx="40" cy="20" r="10.5" fill="#FFFFFF" opacity="0.55"/>
    <circle cx="40" cy="20" r="10.5" fill="none" stroke="#8A5230" stroke-width="3.2"/>
    <line x1="47.6" y1="27.6" x2="55" y2="35" stroke="#8A5230" stroke-width="4.2" stroke-linecap="round"/>
    <text x="40" y="25" font-size="13" font-weight="800" text-anchor="middle" fill="#8A5230" font-family="sans-serif">?</text>
  </g>
  <circle cx="53" cy="53" r="9.5" fill="#fff" stroke="#A85796" stroke-width="2.5"/>
  <text x="53" y="56.5" font-family="Arial, sans-serif" font-size="8" font-weight="bold" fill="#A85796" text-anchor="middle">ป.1</text>
</svg>
