<svg viewBox="0 0 64 64" xmlns="http://www.w3.org/2000/svg" role="img" aria-label="วัฏจักรธรรมชาติ ป.1">
  <defs>
    <linearGradient id="p1natG" x1="0" y1="0" x2="0" y2="1">
      <stop offset="0" stop-color="#9de05f"/>
      <stop offset="1" stop-color="#6fbf3b"/>
    </linearGradient>
    <linearGradient id="p1potG" x1="0" y1="0" x2="0" y2="1">
      <stop offset="0" stop-color="#ff9e6b"/>
      <stop offset="1" stop-color="#f0794a"/>
    </linearGradient>
  </defs>
  <ellipse cx="32" cy="57" rx="17" ry="3.5" fill="#000" opacity="0.10"/>
  <!-- sun -->
  <circle cx="48" cy="15" r="6" fill="#ffd54f" stroke="#e0a512" stroke-width="2"/>
  <g stroke="#ffd54f" stroke-width="2.4" stroke-linecap="round">
    <path d="M48 4v3M58 15h-3M48 26v-3M38 15h3"/>
  </g>
  <!-- stem -->
  <path d="M32 50V28" fill="none" stroke="#3f9a52" stroke-width="3.4" stroke-linecap="round"/>
  <!-- leaves -->
  <path d="M32 34c-8 0-13-4-13-10 7 0 13 3 13 10z" fill="url(#p1natG)" stroke="#4f9e2f" stroke-width="2.4" stroke-linejoin="round"/>
  <path d="M32 30c7 0 12-4 12-10-6.5 0-12 3-12 10z" fill="url(#p1natG)" stroke="#4f9e2f" stroke-width="2.4" stroke-linejoin="round"/>
  <!-- pot -->
  <path d="M20 46h24l-3 10a3 3 0 0 1-3 2.4H26a3 3 0 0 1-3-2.4z" fill="url(#p1potG)" stroke="#c9542f" stroke-width="3" stroke-linejoin="round"/>
  <rect x="18" y="42" width="28" height="6" rx="3" fill="#ffb98a" stroke="#c9542f" stroke-width="2.5"/>
</svg>
