<svg viewBox="0 0 64 64" xmlns="http://www.w3.org/2000/svg" role="img" aria-label="นักวิทย์ทายผล รอบตัวเรา ป.1">
  <defs>
    <linearGradient id="p1sci2f" x1="0" y1="0" x2="0" y2="1">
      <stop offset="0" stop-color="#b7a9ee"/>
      <stop offset="1" stop-color="#8b7be0"/>
    </linearGradient>
  </defs>
  <ellipse cx="32" cy="58" rx="15" ry="3.2" fill="#000" opacity="0.10"/>
  <!-- flask body -->
  <path d="M26 12 V26 L15 48 Q13 56 22 56 H42 Q51 56 49 48 L38 26 V12 Z"
        fill="#f2eeff" stroke="#6a5bc0" stroke-width="3" stroke-linejoin="round"/>
  <!-- liquid -->
  <path d="M22 36 L18.5 48 Q17.5 53 22 53 H42 Q46.5 53 45.5 48 L42 36 Z" fill="url(#p1sci2f)"/>
  <path d="M22 36 H42" stroke="#fff" stroke-width="1.6" opacity="0.7"/>
  <!-- neck rim -->
  <rect x="24" y="9" width="16" height="6" rx="3" fill="#dcd3fa" stroke="#6a5bc0" stroke-width="3"/>
  <!-- bubbles -->
  <circle cx="28" cy="45" r="2.4" fill="#fff" opacity="0.85"/>
  <circle cx="36" cy="42" r="2" fill="#fff" opacity="0.8"/>
  <circle cx="33" cy="49" r="1.6" fill="#fff" opacity="0.7"/>
  <circle cx="32" cy="24" r="2.2" fill="#ffd24d" stroke="#e0913f" stroke-width="1.4"/>
  <circle cx="30" cy="18" r="1.7" fill="#7ee0a6" stroke="#3b9e5b" stroke-width="1.2"/>
</svg>
