<svg viewBox="0 0 64 64" xmlns="http://www.w3.org/2000/svg" role="img" aria-label="ภาษาไทย ป.1 จับใจความ">
  <defs>
    <linearGradient id="p1thai3G" x1="0" y1="0" x2="0" y2="1">
      <stop offset="0" stop-color="#ff8dc4"/>
      <stop offset="1" stop-color="#d63d8c"/>
    </linearGradient>
  </defs>
  <ellipse cx="32" cy="55" rx="21" ry="3.5" fill="#000" opacity="0.10"/>
  <!-- open book cover -->
  <path d="M12 15c6-2 14-2 20 1 6-3 14-3 20-1v33c-6-2-14-2-20 1-6-3-14-3-20-1z"
        fill="url(#p1thai3G)" stroke="#c73d85" stroke-width="3" stroke-linejoin="round"/>
  <!-- left page with text lines -->
  <path d="M32 16c-5-2.4-11-2.6-16-1.5v29.5c5-1 11-.8 16 1.4z" fill="#fff" stroke="#c73d85" stroke-width="2"/>
  <g stroke="#f5a6cd" stroke-width="2.2" stroke-linecap="round">
    <path d="M18 23h9M18 29h9M18 35h6"/>
  </g>
  <!-- right page with text lines -->
  <path d="M32 16c5-2.4 11-2.6 16-1.5v29.5c-5-1-11-.8-16 1.4z" fill="#fff" stroke="#c73d85" stroke-width="2"/>
  <g stroke="#f5a6cd" stroke-width="2.2" stroke-linecap="round">
    <path d="M37 23h9M37 29h9M37 35h6"/>
  </g>
  <path d="M32 16v31" stroke="#c73d85" stroke-width="3" stroke-linecap="round"/>
  <!-- magnifier (จับใจความ) -->
  <circle cx="42" cy="40" r="6.5" fill="none" stroke="#4c8df0" stroke-width="3"/>
  <path d="M47 45l5 5" stroke="#4c8df0" stroke-width="3.4" stroke-linecap="round"/>
</svg>
