<svg viewBox="0 0 64 64" xmlns="http://www.w3.org/2000/svg" role="img" aria-label="ฟังประโยคเติมคำ ป.3 · English">
  <defs><linearGradient id="g" x1="0" y1="0" x2="0" y2="1"><stop offset="0" stop-color="#8f9cef"/><stop offset="1" stop-color="#5B6EE8"/></linearGradient><linearGradient id="g2" x1="0" y1="0" x2="0" y2="1"><stop offset="0" stop-color="#ffffff"/><stop offset="1" stop-color="#d1d6f9"/></linearGradient></defs>
  <ellipse cx="32" cy="57" rx="17" ry="3.5" fill="#000" opacity="0.10"/>
  <rect x="6" y="14" width="52" height="30" rx="9" fill="#fff" stroke="#3e4b9e" stroke-width="3"/><path d="M18 44l-1 8 9-8z" fill="#fff" stroke="#3e4b9e" stroke-width="3" stroke-linejoin="round"/><g stroke="#6b7dea" stroke-width="3.2" stroke-linecap="round"><path d="M12 23h9M35 23h8M12 35h7M32 35h11"/></g><rect x="23" y="18" width="10" height="10" rx="3" fill="url(#g)" stroke="#3e4b9e" stroke-width="2.4"/><rect x="21" y="30" width="9" height="10" rx="3" fill="url(#g)" stroke="#3e4b9e" stroke-width="2.4" stroke-dasharray="0"/><g stroke="#3e4b9e" stroke-width="2.6" stroke-linecap="round" fill="none" opacity=".85"><path d="M50 20c3 4 3 9 0 13"/><path d="M55 15c5 7 5 16 0 23"/></g>
  <g><circle cx="53" cy="53" r="9.5" fill="#fff" stroke="#4453ae" stroke-width="2.5"/><text x="53" y="56.3" font-family="'Sarabun','Noto Sans Thai',Arial,sans-serif" font-size="8" font-weight="bold" fill="#404da2" text-anchor="middle">ป.3</text></g>
</svg>
