<svg viewBox="0 0 64 64" xmlns="http://www.w3.org/2000/svg" role="img" aria-label="ธรรมชาติ ป.4 · ทรัพยากรและระบบนิเวศ">
  <defs><linearGradient id="g" x1="0" y1="0" x2="0" y2="1"><stop offset="0" stop-color="#9dd37a"/><stop offset="1" stop-color="#6FBF3B"/></linearGradient><linearGradient id="g2" x1="0" y1="0" x2="0" y2="1"><stop offset="0" stop-color="#ffffff"/><stop offset="1" stop-color="#d7edc8"/></linearGradient></defs>
  <ellipse cx="32" cy="57" rx="17" ry="3.5" fill="#000" opacity="0.10"/>
  <g fill="url(#g)" stroke="#4b8228" stroke-width="2.6" stroke-linejoin="round"><path d="M32 30c-6-8-16-6-16 2 0 6 8 8 16 2z"/><path d="M32 30c6-8 16-6 16 2 0 6-8 8-16 2z"/><path d="M32 30c-8-6-6-16 2-16 6 0 8 8 2 16z" transform="rotate(-90 32 30)"/><path d="M32 30c8 6 6 16-2 16-6 0-8-8-2-16z" transform="rotate(0 32 30)"/></g><path d="M32 34c1 8 3 14 8 20" fill="none" stroke="#4F9E2F" stroke-width="3.2" stroke-linecap="round"/>
  <g><circle cx="53" cy="53" r="9.5" fill="#fff" stroke="#538f2c" stroke-width="2.5"/><text x="53" y="56.3" font-family="'Sarabun','Noto Sans Thai',Arial,sans-serif" font-size="8" font-weight="bold" fill="#4e8629" text-anchor="middle">ป.4</text></g>
</svg>
