<svg viewBox="0 0 64 64" xmlns="http://www.w3.org/2000/svg" role="img" aria-label="เติมแพทเทิร์น">
  <defs>
    <linearGradient id="patA" x1="0" y1="0" x2="0" y2="1">
      <stop offset="0" stop-color="#9BD8FF"/>
      <stop offset="1" stop-color="#59AEF2"/>
    </linearGradient>
    <linearGradient id="patB" x1="0" y1="0" x2="0" y2="1">
      <stop offset="0" stop-color="#ffe27a"/>
      <stop offset="1" stop-color="#ffc531"/>
    </linearGradient>
    <linearGradient id="patC" x1="0" y1="0" x2="0" y2="1">
      <stop offset="0" stop-color="#F8A9E0"/>
      <stop offset="1" stop-color="#DE5FB9"/>
    </linearGradient>
  </defs>
  <ellipse cx="32" cy="55" rx="21" ry="3.5" fill="#000" opacity="0.10"/>
  <!-- tile 1: red circle -->
  <g transform="rotate(-7 12 30)">
    <rect x="3" y="21" width="18" height="18" rx="5.5" fill="url(#patA)" stroke="#3D87C9" stroke-width="2.6"/>
    <rect x="5.5" y="23.5" width="13" height="5" rx="2.5" fill="#fff" opacity="0.30"/>
    <circle cx="12" cy="30" r="4.8" fill="#FF6B6B" stroke="#D64545" stroke-width="1.8"/>
  </g>
  <!-- tile 2: orange star -->
  <g>
    <rect x="23" y="21" width="18" height="18" rx="5.5" fill="url(#patB)" stroke="#E0A516" stroke-width="2.6"/>
    <rect x="25.5" y="23.5" width="13" height="5" rx="2.5" fill="#fff" opacity="0.32"/>
    <path d="M32 24.2 L33.41 28.06 L37.52 28.21 L34.28 30.74 L35.41 34.69 L32 32.4 L28.59 34.69 L29.72 30.74 L26.48 28.21 L30.59 28.06 Z"
          fill="#FF9E2C" stroke="#E67E22" stroke-width="1.5" stroke-linejoin="round"/>
  </g>
  <!-- tile 3: question mark -->
  <g transform="rotate(7 52 30)">
    <rect x="43" y="21" width="18" height="18" rx="5.5" fill="url(#patC)" stroke="#B8399A" stroke-width="2.6"/>
    <rect x="45.5" y="23.5" width="13" height="5" rx="2.5" fill="#fff" opacity="0.30"/>
    <path d="M48.4 27.6 c0-2.2 1.7-3.6 3.7-3.6 c2.1 0 3.7 1.4 3.7 3.3 c0 1.7-1 2.5-2 3.2 c-0.8 0.6-1.1 1-1.1 1.9"
          fill="none" stroke="#fff" stroke-width="2.6" stroke-linecap="round"/>
    <circle cx="52.6" cy="36" r="1.6" fill="#fff"/>
  </g>
  <!-- sparkles -->
  <path d="M14 12 l1.2 3 3 1.2 -3 1.2 -1.2 3 -1.2 -3 -3 -1.2 3 -1.2 Z" fill="#FFD34E"/>
  <path d="M47 8 l1 2.4 2.4 1 -2.4 1 -1 2.4 -1 -2.4 -2.4 -1 2.4 -1 Z" fill="#8FD3FF"/>
  <circle cx="32" cy="12" r="2" fill="#F8A9E0"/>
</svg>
