<svg viewBox="0 0 64 64" xmlns="http://www.w3.org/2000/svg" role="img" aria-label="เกมฝึกทักษะ">
  <defs>
    <linearGradient id="skG1" x1="0" y1="0" x2="0" y2="1">
      <stop offset="0" stop-color="#c6edd0"/>
      <stop offset="1" stop-color="#3a9a6e"/>
    </linearGradient>
    <linearGradient id="skG2" x1="0" y1="0" x2="0" y2="1">
      <stop offset="0" stop-color="#ffe9a8"/>
      <stop offset="1" stop-color="#ffc53d"/>
    </linearGradient>
  </defs>
  <ellipse cx="32" cy="58" rx="17" ry="3" fill="#000" opacity="0.09"/>
  <!-- big green puzzle piece (left) -->
  <path d="M11 16 a4 4 0 0 1 4-4 h9 a1.5 1.5 0 0 0 1.4-2 a4.5 4.5 0 1 1 8.5 0 a1.5 1.5 0 0 0 1.4 2 h6 a4 4 0 0 1 4 4 v8 a1.5 1.5 0 0 1-2 1.4 a4.5 4.5 0 1 0 0 8.5 a1.5 1.5 0 0 1 2 1.4 v8 a4 4 0 0 1-4 4 h-26 a4 4 0 0 1-4-4 v-9 a1.5 1.5 0 0 1 2-1.4 a4.5 4.5 0 1 0 0-8.5 a1.5 1.5 0 0 1-2-1.4 z"
        fill="url(#skG1)" stroke="#237a50" stroke-width="2.5" stroke-linejoin="round"/>
  <path d="M14 16 h8 v28 h-8 z" fill="#fff" opacity="0.14"/>
  <!-- small yellow puzzle piece connecting (right) -->
  <path d="M45 30 a1.5 1.5 0 0 1 2-1.4 a4.5 4.5 0 1 0 0-8.5 a1.5 1.5 0 0 1-2-1.4 v-4.5 a3.5 3.5 0 0 1 3.5-3.5 h7 a3.5 3.5 0 0 1 3.5 3.5 v7 a3.5 3.5 0 0 1-3.5 3.5 h-2 a1.3 1.3 0 0 0-1.2 1.8 a4 4 0 1 1-7.3 0 z"
        fill="url(#skG2)" stroke="#d4a017" stroke-width="2.2" stroke-linejoin="round" transform="translate(0 22)"/>
  <!-- sparkles -->
  <path d="M52 8 l1.2 3 3 1.2 -3 1.2 -1.2 3 -1.2-3 -3-1.2 3-1.2 z" fill="#ffd54f"/>
  <circle cx="58" cy="20" r="1.5" fill="#ffd54f" opacity="0.8"/>
</svg>
