<svg viewBox="0 0 64 64" xmlns="http://www.w3.org/2000/svg" role="img" aria-label="การโต้ตอบ AR">
  <defs>
    <linearGradient id="arG" x1="0" y1="0" x2="0" y2="1">
      <stop offset="0" stop-color="#ffd6e8"/>
      <stop offset="1" stop-color="#f17fa8"/>
    </linearGradient>
  </defs>
  <ellipse cx="32" cy="58" rx="16" ry="3" fill="#000" opacity="0.09"/>
  <!-- hand: palm + fingers as one smooth shape -->
  <path d="M20 44
           C17 40 15 34 16 30 C16.5 27.8 19.5 27.6 20.5 29.6 L23 34
           V19 C23 16.8 26.5 16.8 26.5 19 V31
           L27.5 15.5 C27.7 13.3 31.2 13.4 31.2 15.6 L31 31
           L33.5 17.5 C33.9 15.4 37.3 15.8 37 18 L35.5 32
           L39.5 25.5 C40.7 23.7 43.6 25 42.8 27.2
           C41 32 39.5 36.5 38.5 41 C37.3 46.5 33 50 27.8 50 C24.5 50 21.8 47.6 20 44 Z"
        fill="url(#arG)" stroke="#c0527a" stroke-width="2.5" stroke-linejoin="round"/>
  <ellipse cx="28" cy="41" rx="6" ry="5" fill="#fff" opacity="0.20"/>
  <!-- touch ripples -->
  <circle cx="50" cy="14" r="4" fill="none" stroke="#f17fa8" stroke-width="2.5"/>
  <circle cx="50" cy="14" r="8.5" fill="none" stroke="#f17fa8" stroke-width="2" opacity="0.55"/>
  <circle cx="50" cy="14" r="13" fill="none" stroke="#f17fa8" stroke-width="1.6" opacity="0.3"/>
  <circle cx="50" cy="14" r="1.6" fill="#f17fa8"/>
</svg>
