<svg viewBox="0 0 64 64" xmlns="http://www.w3.org/2000/svg" role="img" aria-label="ต่อประโยค (Eng)">
  <defs>
    <linearGradient id="stEnA" x1="0" y1="0" x2="0" y2="1">
      <stop offset="0" stop-color="#a7d4ff"/>
      <stop offset="1" stop-color="#4f97f5"/>
    </linearGradient>
    <linearGradient id="stEnB" x1="0" y1="0" x2="0" y2="1">
      <stop offset="0" stop-color="#7cc0ff"/>
      <stop offset="1" stop-color="#3d84e6"/>
    </linearGradient>
  </defs>
  <ellipse cx="32" cy="55" rx="20" ry="3.5" fill="#000" opacity="0.10"/>

  <!-- letter tile 1 "A" with puzzle knob on right -->
  <path d="M10 20h16v6a3.5 3.5 0 0 0 0 7v6H10a3 3 0 0 1-3-3v-6a3.5 3.5 0 0 0 0-7v-6a3 3 0 0 1 3-3z"
        fill="url(#stEnA)" stroke="#2f6bc4" stroke-width="3" stroke-linejoin="round"/>
  <text x="17" y="34" font-family="Arial, sans-serif" font-size="15" font-weight="bold" fill="#fff" text-anchor="middle">A</text>

  <!-- letter tile 2 "B" with puzzle socket on left -->
  <path d="M54 20H38v6a3.5 3.5 0 0 1 0 7v6h16a3 3 0 0 0 3-3v-6a3.5 3.5 0 0 1 0-7v-6a3 3 0 0 0-3-3z"
        fill="url(#stEnB)" stroke="#2f6bc4" stroke-width="3" stroke-linejoin="round"/>
  <text x="47" y="34" font-family="Arial, sans-serif" font-size="15" font-weight="bold" fill="#fff" text-anchor="middle">B</text>

  <!-- highlight -->
  <path d="M11 23h6v3h-6z" fill="#fff" opacity="0.28"/>

  <!-- plus badge showing "join" -->
  <circle cx="32" cy="46" r="7" fill="#ffd54f" stroke="#2f6bc4" stroke-width="2.6"/>
  <path d="M32 43v6M29 46h6" stroke="#2f6bc4" stroke-width="2.6" stroke-linecap="round"/>
</svg>
