<svg viewBox="0 0 64 64" xmlns="http://www.w3.org/2000/svg" role="img" aria-label="ทายเงา 3">
  <defs>
    <linearGradient id="sh3A" x1="0" y1="0" x2="0" y2="1">
      <stop offset="0" stop-color="#ffe27a"/>
      <stop offset="1" stop-color="#ffc531"/>
    </linearGradient>
    <linearGradient id="sh3Beam" x1="0" y1="0" x2="1" y2="0">
      <stop offset="0" stop-color="#fff3b8" stop-opacity=".95"/>
      <stop offset="1" stop-color="#fff3b8" stop-opacity=".15"/>
    </linearGradient>
  </defs>
  <ellipse cx="32" cy="57" rx="20" ry="3.5" fill="#000" opacity="0.10"/>

  <!-- ลำแสงไฟฉาย -->
  <path d="M21 29 L54 15 L54 50 Z" fill="url(#sh3Beam)"/>

  <!-- ไฟฉาย -->
  <g transform="rotate(14 13 33)">
    <rect x="2" y="28" width="13" height="11" rx="3.5" fill="#9db1e8" stroke="#5b6bc0" stroke-width="3"/>
    <rect x="14" y="25" width="8" height="17" rx="3" fill="url(#sh3A)" stroke="#e0a516" stroke-width="3"/>
  </g>

  <!-- เงา 3 ชิ้นซ้อนกัน: ดาว (หลังสุด อ่อนสุด) + ลูกบอล (กลาง) + กระต่าย (หน้า เข้มสุด) -->
  <g fill="#8b91b3">
    <path d="M50 18 l2.4 4.9 5.4 .8 -3.9 3.8 .9 5.4 -4.8 -2.5 -4.8 2.5 .9 -5.4 -3.9 -3.8 5.4 -.8 Z"/>
  </g>
  <g fill="#6b7396">
    <circle cx="53" cy="40" r="8"/>
  </g>
  <g fill="#3d4666">
    <ellipse cx="42.5" cy="42" rx="8" ry="7"/>
    <ellipse cx="39.5" cy="30" rx="2.5" ry="6.5" transform="rotate(-9 39.5 30)"/>
    <ellipse cx="46" cy="30" rx="2.5" ry="6.5" transform="rotate(9 46 30)"/>
    <circle cx="50.5" cy="45.5" r="2.8"/>
  </g>
</svg>
