<svg viewBox="0 0 64 64" xmlns="http://www.w3.org/2000/svg" role="img" aria-label="ภาษาไทย 1">
  <defs>
    <linearGradient id="thai1G" x1="0" y1="0" x2="0" y2="1">
      <stop offset="0" stop-color="#7cc0ff"/>
      <stop offset="1" stop-color="#4f97f5"/>
    </linearGradient>
  </defs>
  <ellipse cx="32" cy="55" rx="21" ry="3.5" fill="#000" opacity="0.10"/>
  <!-- book cover -->
  <path d="M12 14c6-2 14-2 20 1 6-3 14-3 20-1v34c-6-2-14-2-20 1-6-3-14-3-20-1z"
        fill="url(#thai1G)" stroke="#2f6bc4" stroke-width="3" stroke-linejoin="round"/>
  <!-- left page (blank lines) -->
  <path d="M32 15c-5-2.4-11-2.6-16-1.5v30.5c5-1 11-.8 16 1.4z" fill="#eaf4ff" stroke="#2f6bc4" stroke-width="2"/>
  <g stroke="#9cc4f0" stroke-width="2.2" stroke-linecap="round">
    <path d="M17 22h9M17 28h9M17 34h9"/>
  </g>
  <!-- right page with big ก -->
  <path d="M32 15c5-2.4 11-2.6 16-1.5v30.5c-5-1-11-.8-16 1.4z" fill="#ffffff" stroke="#2f6bc4" stroke-width="2"/>
  <text x="40" y="36" font-family="'Sarabun','Noto Sans Thai',sans-serif" font-size="22" font-weight="bold" fill="#2f6bc4" text-anchor="middle">ก</text>
  <!-- spine -->
  <path d="M32 15v32" stroke="#2f6bc4" stroke-width="3" stroke-linecap="round"/>
  <!-- highlight -->
  <path d="M14 15c4-1.2 9-1.3 13 .6v3C23 17 19 17 15 18z" fill="#fff" opacity="0.4"/>
</svg>
